<?xml version="1.0" standalone="no"?>
<!DOCTYPE svg PUBLIC "-//W3C//DTD SVG 20010904//EN"
 "http://www.w3.org/TR/2001/REC-SVG-20010904/DTD/svg10.dtd">
<svg version="1.0" xmlns="http://www.w3.org/2000/svg"
 width="480.000000pt" height="480.000000pt" viewBox="0 0 480.000000 480.000000"
 preserveAspectRatio="xMidYMid meet">
<metadata>
Created by potrace 1.14, written by Peter Selinger 2001-2017
</metadata>
<g transform="translate(0.000000,480.000000) scale(0.100000,-0.100000)"
fill="#000000" stroke="none">
<path d="M700 2400 l0 -1700 1700 0 1700 0 0 1700 0 1700 -1700 0 -1700 0 0
-1700z m800 1200 l0 -300 -300 0 -300 0 0 300 0 300 300 0 300 0 0 -300z m800
0 l0 -300 -300 0 -300 0 0 300 0 300 300 0 300 0 0 -300z m800 0 l0 -300 -300
0 -300 0 0 300 0 300 300 0 300 0 0 -300z m800 0 l0 -300 -300 0 -300 0 0 300
0 300 300 0 300 0 0 -300z m-2400 -800 l0 -300 -300 0 -300 0 0 300 0 300 300
0 300 0 0 -300z m800 0 l0 -300 -300 0 -300 0 0 300 0 300 300 0 300 0 0 -300z
m800 0 l0 -300 -300 0 -300 0 0 300 0 300 300 0 300 0 0 -300z m800 0 l0 -300
-300 0 -300 0 0 300 0 300 300 0 300 0 0 -300z m-2400 -800 l0 -300 -300 0
-300 0 0 300 0 300 300 0 300 0 0 -300z m800 0 l0 -300 -300 0 -300 0 0 300 0
300 300 0 300 0 0 -300z m800 0 l0 -300 -300 0 -300 0 0 300 0 300 300 0 300
0 0 -300z m800 0 l0 -300 -300 0 -300 0 0 300 0 300 300 0 300 0 0 -300z
m-2400 -800 l0 -300 -300 0 -300 0 0 300 0 300 300 0 300 0 0 -300z m800 0 l0
-300 -300 0 -300 0 0 300 0 300 300 0 300 0 0 -300z m800 0 l0 -300 -300 0
-300 0 0 300 0 300 300 0 300 0 0 -300z m800 0 l0 -300 -300 0 -300 0 0 300 0
300 300 0 300 0 0 -300z"/>
</g>
</svg>
